<?xml version="1.0" encoding="UTF-8" standalone="no"?>
<svg
   viewBox="0 0 16 16"
   version="1.1"
   id="svg15"
   sodipodi:docname="chart-bar-fill.svg"
   width="16"
   height="16"
   inkscape:version="1.2.2 (732a01da63, 2022-12-09)"
   xmlns:inkscape="http://www.inkscape.org/namespaces/inkscape"
   xmlns:sodipodi="http://sodipodi.sourceforge.net/DTD/sodipodi-0.dtd"
   xmlns="http://www.w3.org/2000/svg"
   xmlns:svg="http://www.w3.org/2000/svg">
  <defs
     id="defs19" />
  <sodipodi:namedview
     id="namedview17"
     pagecolor="#ffffff"
     bordercolor="#666666"
     borderopacity="1.0"
     inkscape:showpageshadow="2"
     inkscape:pageopacity="0.0"
     inkscape:pagecheckerboard="0"
     inkscape:deskcolor="#d1d1d1"
     showgrid="false"
     inkscape:zoom="22.627417"
     inkscape:cx="-7.9770484"
     inkscape:cy="2.6516504"
     inkscape:window-width="1920"
     inkscape:window-height="1017"
     inkscape:window-x="1912"
     inkscape:window-y="-8"
     inkscape:window-maximized="1"
     inkscape:current-layer="chart-bar" />
  <g
     id="chart-bar">
    <path
       id="path541"
       style="fill:#000000;stroke-width:1"
       d="M 0.72727273,0 A 0.7369697,0.7369697 0 0 0 0,0.72727273 V 15.272727 A 0.72727273,0.72727273 0 0 0 0.72727273,16 H 15.272727 A 0.7369697,0.7369697 0 0 0 16,15.272727 V 0.72727273 A 0.72727273,0.72727273 0 0 0 15.272727,0 Z M 7.5151515,3.3939394 A 0.72727273,0.72727273 0 0 1 8.2424242,4.1212121 V 11.878788 A 0.7369697,0.7369697 0 0 1 7.5151515,12.606061 0.7369697,0.7369697 0 0 1 6.7878788,11.878788 V 4.1212121 A 0.72727273,0.72727273 0 0 1 7.5151515,3.3939394 Z m 6.7878785,0 a 0.72727273,0.72727273 0 0 1 0.727273,0.7272727 V 11.878788 A 0.7369697,0.7369697 0 0 1 14.30303,12.606061 0.7369697,0.7369697 0 0 1 13.575758,11.878788 V 4.1212121 A 0.72727273,0.72727273 0 0 1 14.30303,3.3939394 Z M 4.0340909,7.2784091 A 0.72727273,0.72727273 0 0 1 4.8484848,8 v 3.878788 A 0.7369697,0.7369697 0 0 1 4.1212121,12.606061 0.7369697,0.7369697 0 0 1 3.3939394,11.878788 V 8 A 0.72727273,0.72727273 0 0 1 4.0340909,7.2784091 Z m 6.7878781,0 A 0.72727273,0.72727273 0 0 1 11.636364,8 v 3.878788 a 0.7369697,0.7369697 0 0 1 -0.727273,0.727273 0.7369697,0.7369697 0 0 1 -0.727273,-0.727273 V 8 a 0.72727273,0.72727273 0 0 1 0.640151,-0.7215909 z" />
  </g>
</svg>
