<?xml version="1.0" encoding="UTF-8" standalone="no"?>
<svg
   width="17.5"
   height="16"
   version="1.1"
   viewBox="0 0 17.5 16"
   id="svg7"
   sodipodi:docname="money-bill-fill.svg"
   inkscape:version="1.2.2 (732a01da63, 2022-12-09)"
   xmlns:inkscape="http://www.inkscape.org/namespaces/inkscape"
   xmlns:sodipodi="http://sodipodi.sourceforge.net/DTD/sodipodi-0.dtd"
   xmlns="http://www.w3.org/2000/svg"
   xmlns:svg="http://www.w3.org/2000/svg">
  <defs
     id="defs11" />
  <sodipodi:namedview
     id="namedview9"
     pagecolor="#ffffff"
     bordercolor="#666666"
     borderopacity="1.0"
     inkscape:showpageshadow="2"
     inkscape:pageopacity="0.0"
     inkscape:pagecheckerboard="0"
     inkscape:deskcolor="#d1d1d1"
     showgrid="false"
     inkscape:zoom="21.92031"
     inkscape:cx="5.5884246"
     inkscape:cy="12.864782"
     inkscape:window-width="1920"
     inkscape:window-height="1017"
     inkscape:window-x="1912"
     inkscape:window-y="-8"
     inkscape:window-maximized="1"
     inkscape:current-layer="svg7" />
  <g
     id="money-bill"
     style="fill:#000000;stroke:none"
     transform="translate(0,1.25)">
    <path
       d="M 1.75,0 A 1.76,1.76 0 0 0 0,1.75 v 10 a 1.76,1.76 0 0 0 1.75,1.75 h 14 A 1.76,1.76 0 0 0 17.5,11.75 V 9.459 1.75 A 1.76,1.76 0 0 0 15.75,0 Z m 0,1.5 h 0.26172 1.4277 0.75781 a 2.33,2.33 0 0 1 0.042969,0.41992 2.33,2.33 0 0 1 -2.3301,2.3301 2.33,2.33 0 0 1 -0.41016,-0.041016 v -0.79883 -1.4902 -0.16992 a 0.25,0.25 0 0 1 0.25,-0.25 z m 11.541,0.00977 h 0.76953 1.5195 0.16992 a 0.25,0.25 0 0 1 0.25,0.24023 v 0.27148 1.3984 0.78711 a 2.33,2.33 0 0 1 -0.41992,0.042969 2.33,2.33 0 0 1 -2.3301,-2.3301 2.33,2.33 0 0 1 0.04102,-0.41016 z M 8.75,3.99997 a 2.75,2.75 0 0 1 2.75,2.75 2.75,2.75 0 0 1 -2.75,2.75 2.75,2.75 0 0 1 -2.75,-2.75 2.75,2.75 0 0 1 2.75,-2.75 z m -6.8301,5.25 a 2.33,2.33 0 0 1 2.3301,2.330096 2.33,2.33 0 0 1 -0.041016,0.41016 h -0.76953 -1.5195 -0.16992 a 0.25,0.25 0 0 1 -0.25,-0.24023 v -0.27148 -1.3984 -0.7871104 a 2.33,2.33 0 0 1 0.41992,-0.042969 z m 13.67,0 a 2.33,2.33 0 0 1 0.41016,0.041016 v 0.79883 1.4902 0.16992 a 0.25,0.25 0 0 1 -0.25,0.25 h -0.26172 -1.4277 -0.75781 a 2.33,2.33 0 0 1 -0.04297,-0.41992 2.33,2.33 0 0 1 2.3301,-2.3301 z"
       id="path2"
       style="fill:#000000;stroke:none" />
  </g>
</svg>
