<?xml version="1.0" encoding="UTF-8" standalone="no"?>
<svg
   viewBox="0 0 14.169401 16"
   version="1.1"
   id="svg9"
   sodipodi:docname="book-fill.svg"
   inkscape:version="1.2.2 (732a01da63, 2022-12-09)"
   width="14.169401"
   height="16"
   xmlns:inkscape="http://www.inkscape.org/namespaces/inkscape"
   xmlns:sodipodi="http://sodipodi.sourceforge.net/DTD/sodipodi-0.dtd"
   xmlns="http://www.w3.org/2000/svg"
   xmlns:svg="http://www.w3.org/2000/svg">
  <defs
     id="defs13" />
  <sodipodi:namedview
     id="namedview11"
     pagecolor="#ffffff"
     bordercolor="#666666"
     borderopacity="1.0"
     inkscape:showpageshadow="2"
     inkscape:pageopacity="0.0"
     inkscape:pagecheckerboard="0"
     inkscape:deskcolor="#d1d1d1"
     showgrid="false"
     inkscape:zoom="24.660349"
     inkscape:cx="1.399007"
     inkscape:cy="13.706213"
     inkscape:window-width="1920"
     inkscape:window-height="1017"
     inkscape:window-x="1912"
     inkscape:window-y="-8"
     inkscape:window-maximized="1"
     inkscape:current-layer="svg9" />
  <path
     id="path509"
     style="fill:#000000;fill-opacity:1;stroke:none;stroke-width:1px;stroke-linecap:butt;stroke-linejoin:miter;stroke-opacity:1"
     d="M 2.2853873,9.5632341e-4 A 2.2213964,2.2213964 0 0 0 0,2.1488632 V 13.484741 a 2.6053415,2.6053415 0 0 0 2.6871155,2.513926 H 13.483785 a 0.69475772,0.69475772 0 0 0 0.685616,-0.685616 V 0.6865725 A 0.69475772,0.69475772 0 0 0 13.483785,9.5632341e-4 Z M 4.113697,3.6575759 h 5.942007 a 0.68561618,0.68561618 0 0 1 0,1.3712323 H 4.113697 a 0.68561618,0.68561618 0 0 1 0,-1.3712323 z m 0,3.1995421 h 5.942007 a 0.6856162,0.6856162 0 0 1 0,1.3712324 H 4.113697 a 0.6856162,0.6856162 0 0 1 0,-1.3712324 z M 2.6871155,12.342047 H 12.798169 v 2.285388 H 2.6871155 A 1.2341091,1.2341091 0 0 1 1.3712324,13.484741 1.2341091,1.2341091 0 0 1 2.6871155,12.342047 Z" />
</svg>
