<?xml version="1.0" encoding="UTF-8" standalone="no"?>
<svg
   viewBox="0 0 15.5 17.5"
   version="1.1"
   id="svg9"
   sodipodi:docname="book-fill.svg"
   inkscape:version="1.2.2 (732a01da63, 2022-12-09)"
   width="15.5"
   height="17.5"
   xmlns:inkscape="http://www.inkscape.org/namespaces/inkscape"
   xmlns:sodipodi="http://sodipodi.sourceforge.net/DTD/sodipodi-0.dtd"
   xmlns="http://www.w3.org/2000/svg"
   xmlns:svg="http://www.w3.org/2000/svg">
  <defs
     id="defs13" />
  <sodipodi:namedview
     id="namedview11"
     pagecolor="#ffffff"
     bordercolor="#666666"
     borderopacity="1.0"
     inkscape:showpageshadow="2"
     inkscape:pageopacity="0.0"
     inkscape:pagecheckerboard="0"
     inkscape:deskcolor="#d1d1d1"
     showgrid="false"
     inkscape:zoom="24.660349"
     inkscape:cx="5.2716204"
     inkscape:cy="13.706213"
     inkscape:window-width="1920"
     inkscape:window-height="1017"
     inkscape:window-x="-8"
     inkscape:window-y="-3"
     inkscape:window-maximized="1"
     inkscape:current-layer="svg9" />
  <path
     id="path509"
     style="fill:#000000;fill-opacity:1;stroke:none;stroke-width:1px;stroke-linecap:butt;stroke-linejoin:miter;stroke-opacity:1"
     d="M 2.5,0.00104613 A 2.43,2.43 0 0 0 0,2.3506555 V 14.751046 a 2.85,2.85 0 0 0 2.9394531,2.75 H 14.75 a 0.76,0.76 0 0 0 0.75,-0.75 V 0.75104613 a 0.76,0.76 0 0 0 -0.75,-0.75 z m 2,3.99999997 H 11 a 0.75,0.75 0 0 1 0,1.5 H 4.5 a 0.75,0.75 0 0 1 0,-1.5 z m 0,3.5 H 11 a 0.75,0.75 0 0 1 0,1.5 H 4.5 a 0.75,0.75 0 0 1 0,-1.5 z M 2.9394531,13.501046 H 14 v 2.5 H 2.9394531 A 1.35,1.35 0 0 1 1.5,14.751046 a 1.35,1.35 0 0 1 1.4394531,-1.25 z" />
</svg>
