<?xml version="1.0" encoding="UTF-8" standalone="no"?>
<svg
   viewBox="0 0 16.5 16.5"
   version="1.1"
   id="svg15"
   sodipodi:docname="chart-bar-fill.svg"
   width="16.5"
   height="16.5"
   inkscape:version="1.2.2 (732a01da63, 2022-12-09)"
   xmlns:inkscape="http://www.inkscape.org/namespaces/inkscape"
   xmlns:sodipodi="http://sodipodi.sourceforge.net/DTD/sodipodi-0.dtd"
   xmlns="http://www.w3.org/2000/svg"
   xmlns:svg="http://www.w3.org/2000/svg">
  <defs
     id="defs19" />
  <sodipodi:namedview
     id="namedview17"
     pagecolor="#ffffff"
     bordercolor="#666666"
     borderopacity="1.0"
     inkscape:showpageshadow="2"
     inkscape:pageopacity="0.0"
     inkscape:pagecheckerboard="0"
     inkscape:deskcolor="#d1d1d1"
     showgrid="false"
     inkscape:zoom="22.627417"
     inkscape:cx="-3.8006989"
     inkscape:cy="2.6074563"
     inkscape:window-width="1920"
     inkscape:window-height="1017"
     inkscape:window-x="-8"
     inkscape:window-y="-3"
     inkscape:window-maximized="1"
     inkscape:current-layer="chart-bar" />
  <g
     id="chart-bar">
    <path
       id="path541"
       style="fill:#000000"
       d="M 0.75 0 A 0.76 0.76 0 0 0 0 0.75 L 0 15.75 A 0.75 0.75 0 0 0 0.75 16.5 L 15.75 16.5 A 0.76 0.76 0 0 0 16.5 15.75 L 16.5 0.75 A 0.75 0.75 0 0 0 15.75 0 L 0.75 0 z M 7.75 3.5 A 0.75 0.75 0 0 1 8.5 4.25 L 8.5 12.25 A 0.76 0.76 0 0 1 7.75 13 A 0.76 0.76 0 0 1 7 12.25 L 7 4.25 A 0.75 0.75 0 0 1 7.75 3.5 z M 14.75 3.5 A 0.75 0.75 0 0 1 15.5 4.25 L 15.5 12.25 A 0.76 0.76 0 0 1 14.75 13 A 0.76 0.76 0 0 1 14 12.25 L 14 4.25 A 0.75 0.75 0 0 1 14.75 3.5 z M 4.1601562 7.5058594 A 0.75 0.75 0 0 1 5 8.25 L 5 12.25 A 0.76 0.76 0 0 1 4.25 13 A 0.76 0.76 0 0 1 3.5 12.25 L 3.5 8.25 A 0.75 0.75 0 0 1 4.1601562 7.5058594 z M 11.160156 7.5058594 A 0.75 0.75 0 0 1 12 8.25 L 12 12.25 A 0.76 0.76 0 0 1 11.25 13 A 0.76 0.76 0 0 1 10.5 12.25 L 10.5 8.25 A 0.75 0.75 0 0 1 11.160156 7.5058594 z " />
  </g>
</svg>
