<?xml version="1.0" encoding="UTF-8" standalone="no"?>
<svg
   viewBox="0 0 18.012615 15.999999"
   version="1.1"
   id="svg7494"
   sodipodi:docname="home-fill.svg"
   inkscape:version="1.2.2 (732a01da63, 2022-12-09)"
   width="18.012615"
   height="15.999999"
   xmlns:inkscape="http://www.inkscape.org/namespaces/inkscape"
   xmlns:sodipodi="http://sodipodi.sourceforge.net/DTD/sodipodi-0.dtd"
   xmlns="http://www.w3.org/2000/svg"
   xmlns:svg="http://www.w3.org/2000/svg">
  <defs
     id="defs7498" />
  <sodipodi:namedview
     id="namedview7496"
     pagecolor="#ffffff"
     bordercolor="#666666"
     borderopacity="1.0"
     inkscape:showpageshadow="2"
     inkscape:pageopacity="0.0"
     inkscape:pagecheckerboard="0"
     inkscape:deskcolor="#d1d1d1"
     showgrid="false"
     inkscape:zoom="16"
     inkscape:cx="-2.90625"
     inkscape:cy="4.4375"
     inkscape:window-width="1920"
     inkscape:window-height="1017"
     inkscape:window-x="1912"
     inkscape:window-y="-8"
     inkscape:window-maximized="1"
     inkscape:current-layer="svg7494" />
  <path
     id="path7487"
     d="M 8.838899,0.01769577 A 0.7742145,0.7742145 0 0 0 8.5405033,0.15479625 L 2.3770303,4.7779052 c -0.020594,0.013913 -0.039351,0.028578 -0.05847,0.044356 L 0.28221512,6.3485127 A 0.7742145,0.7742145 0 0 0 1.2096597,7.5864486 l 0.8266356,-0.618968 v 8.2582874 c 0.00556,0.425263 0.3489522,0.768655 0.7742145,0.774215 H 5.8730927 6.161407 a 0.7742145,0.7742145 0 0 0 0.010085,0 0.774215,0.7742145 0 0 0 0.7641291,-0.774215 V 10.32241 A 0.7742145,0.7742145 0 0 1 7.7098362,9.5481956 H 10.298616 A 0.7742145,0.7742145 0 0 1 11.07283,10.32241 v 4.903358 a 0.774215,0.7742145 0 0 0 0.764134,0.774215 h 0.01012 2.576647 0.774214 c 0.425263,-0.0056 0.768655,-0.348952 0.774215,-0.774215 V 6.9674806 l 0.826635,0.618968 A 0.76389164,0.76389164 0 0 0 17.262517,7.7416951 0.76389164,0.76389164 0 0 0 17.881485,7.3807987 0.7742145,0.7742145 0 0 0 17.72624,6.3485127 L 15.782635,4.8908115 C 15.722682,4.8250336 15.650759,4.7728333 15.572952,4.7335492 L 9.4679483,0.15479625 A 0.7742145,0.7742145 0 0 0 8.838899,0.01769577 Z"
     style="stroke-width:1" />
</svg>
