<?xml version="1.0" encoding="UTF-8" standalone="no"?>
<svg
   viewBox="0 0 17.5 15.5"
   version="1.1"
   id="svg7494"
   sodipodi:docname="home-fill.svg"
   inkscape:version="1.2.2 (732a01da63, 2022-12-09)"
   width="17.5"
   height="15.5"
   xmlns:inkscape="http://www.inkscape.org/namespaces/inkscape"
   xmlns:sodipodi="http://sodipodi.sourceforge.net/DTD/sodipodi-0.dtd"
   xmlns="http://www.w3.org/2000/svg"
   xmlns:svg="http://www.w3.org/2000/svg">
  <defs
     id="defs7498" />
  <sodipodi:namedview
     id="namedview7496"
     pagecolor="#ffffff"
     bordercolor="#666666"
     borderopacity="1.0"
     inkscape:showpageshadow="2"
     inkscape:pageopacity="0.0"
     inkscape:pagecheckerboard="0"
     inkscape:deskcolor="#d1d1d1"
     showgrid="false"
     inkscape:zoom="16"
     inkscape:cx="3.0625"
     inkscape:cy="4.4375"
     inkscape:window-width="1920"
     inkscape:window-height="1017"
     inkscape:window-x="-8"
     inkscape:window-y="-3"
     inkscape:window-maximized="1"
     inkscape:current-layer="svg7494" />
  <path
     id="path7487"
     d="m 8.5624518,0.01714231 a 0.75,0.75 0 0 0 -0.289063,0.1328125 L 2.3026859,4.6284704 c -0.01995,0.013478 -0.03812,0.027684 -0.056641,0.042969 L 0.27338856,6.1499552 a 0.75,0.75 0 0 0 0.89843764,1.199218 l 0.8007816,-0.599609 v 7.9999998 c 0.00539,0.411962 0.3380383,0.744614 0.75,0.75 h 2.9667969 0.2792969 a 0.75,0.75 0 0 0 0.00977,0 0.75000048,0.75 0 0 0 0.74023,-0.75 V 9.9995642 a 0.75,0.75 0 0 1 0.7500002,-0.75 h 2.507812 a 0.75,0.75 0 0 1 0.7500002,0.75 v 4.7499998 a 0.75000048,0.75 0 0 0 0.740235,0.75 h 0.0098 2.496059 0.75 c 0.411962,-0.0054 0.744614,-0.338038 0.75,-0.75 V 6.7495642 l 0.800781,0.599609 a 0.74,0.74 0 0 0 0.449219,0.150391 0.74,0.74 0 0 0 0.599609,-0.349609 0.75,0.75 0 0 0 -0.15039,-1 L 15.289014,4.7378454 C 15.230936,4.6741248 15.161262,4.6235571 15.085889,4.5855017 L 9.1718268,0.14995481 a 0.75,0.75 0 0 0 -0.609375,-0.1328125 z" />
</svg>
