<?xml version="1.0" encoding="UTF-8" standalone="no"?>
<svg
   viewBox="0 0 16.5 14.5"
   version="1.1"
   id="svg149"
   sodipodi:docname="poop.svg"
   inkscape:version="1.2.2 (732a01da63, 2022-12-09)"
   width="16.5"
   height="14.5"
   xmlns:inkscape="http://www.inkscape.org/namespaces/inkscape"
   xmlns:sodipodi="http://sodipodi.sourceforge.net/DTD/sodipodi-0.dtd"
   xmlns="http://www.w3.org/2000/svg"
   xmlns:svg="http://www.w3.org/2000/svg">
  <defs
     id="defs153">
    <inkscape:path-effect
       effect="bend_path"
       id="path-effect1716"
       is_visible="true"
       lpeversion="1"
       bendpath="M 6.7806215,4.8808244 V 0.81832441"
       prop_scale="0.58806367"
       scale_y_rel="false"
       vertical="false"
       hide_knot="false"
       bendpath-nodetypes="cc" />
  </defs>
  <sodipodi:namedview
     id="namedview151"
     pagecolor="#ffffff"
     bordercolor="#666666"
     borderopacity="1.0"
     inkscape:showpageshadow="2"
     inkscape:pageopacity="0.0"
     inkscape:pagecheckerboard="0"
     inkscape:deskcolor="#d1d1d1"
     showgrid="false"
     inkscape:zoom="11.313709"
     inkscape:cx="2.6074561"
     inkscape:cy="26.162949"
     inkscape:window-width="1920"
     inkscape:window-height="1017"
     inkscape:window-x="1912"
     inkscape:window-y="-8"
     inkscape:window-maximized="1"
     inkscape:current-layer="g3408" />
  <g
     id="g3402">
    <g
       id="g3408"
       transform="translate(-3.9199007,-1.1)">
      <path
         id="path342"
         style="color:#000000;fill:#000000;stroke:none;stroke-width:1;stroke-linecap:square;stroke-linejoin:round;-inkscape-stroke:none"
         d="m 12.698685,1.100374 a 0.74522331,0.74522331 0 0 0 -0.02523,0.00194 c -0.04003,0.00257 -0.07843,0.006 -0.11837,0.00971 a 0.74522331,0.74522331 0 0 0 -0.677231,0.7412678 v 1.6571797 c 0,0.146004 -0.10238,0.248384 -0.248383,0.248384 H 10.38756 c -1.6373078,0 -2.9805952,1.343287 -2.9805951,2.980594 a 0.74522331,0.74522331 0 0 0 0,0.0039 c 6.516e-4,0.112317 0.043019,0.218691 0.056275,0.329883 -1.1442998,0.418192 -2.0578299,1.339187 -2.0608022,2.613842 a 0.74522331,0.74522331 0 0 0 0,0.0078 c 0.00133,0.170933 0.066662,0.3312235 0.097024,0.4987055 -0.9028232,0.522931 -1.5780473,1.378499 -1.5795603,2.456662 a 0.74522331,0.74522331 0 0 0 0,0.002 c 0,1.637309 1.3432872,2.980595 2.9805952,2.980595 H 17.439306 c 1.637307,0 2.980595,-1.343286 2.980595,-2.980595 -2.38e-4,-1.084298 -0.681239,-1.944586 -1.591204,-2.466365 0.0295,-0.164887 0.09371,-0.3227385 0.09508,-0.4909435 a 0.74522331,0.74522331 0 0 0 0,-0.002 0.74522331,0.74522331 0 0 0 0,-0.002 0.74522331,0.74522331 0 0 0 0,-0.002 c 0,-1.385138 -1.045009,-2.381878 -2.332472,-2.710866 0.06624,-0.158196 0.180202,-0.294263 0.227038,-0.459897 l -0.05627,0.04269 a 0.74522331,0.74522331 0 0 0 0.06598,-0.08345 c 0.02281,-0.08414 0.04449,-0.16882 0.0621,-0.254204 v -0.0039 c 0.01243,-0.05922 0.02309,-0.118823 0.03299,-0.178526 l 0.0039,-0.0059 c 0.01258,-0.07376 0.02236,-0.1469 0.03105,-0.221216 a 0.74522331,0.74522331 0 0 0 0.002,-0.0059 c 0.01628,-0.146834 0.02428,-0.2947 0.02522,-0.442431 a 0.74522331,0.74522331 0 0 0 0,-0.002 0.74522331,0.74522331 0 0 0 0,-0.002 c 6.3e-4,-2.34499 -1.918233,-4.2620187 -4.263306,-4.2612425 a 0.74522331,0.74522331 0 0 0 -0.02329,0 z m 0.669469,1.7561445 c 1.180596,0.317507 2.125264,1.219153 2.124839,2.505176 -7.42e-4,0.09475 -0.0071,0.189127 -0.01747,0.283311 -0.0057,0.04763 -0.01128,0.09632 -0.0194,0.143596 a 0.74522331,0.74522331 0 0 0 -0.002,0.0059 c -0.0068,0.04094 -0.01472,0.08165 -0.02329,0.122251 a 0.74522331,0.74522331 0 0 0 0,0.0039 c -0.01191,0.05802 -0.02515,0.115563 -0.04075,0.172704 a 0.74522331,0.74522331 0 0 0 -0.0059,0.0194 0.74522331,0.74522331 0 0 0 -0.002,0.002 c -0.09131,0.322905 -0.238685,0.625015 -0.438551,0.894568 a 0.74522331,0.74522331 0 0 0 0.597672,1.18952 h 0.401682 c 0.831238,0 1.489263,0.657391 1.490297,1.488358 -2.34e-4,0.02151 -7.79e-4,0.04258 -0.002,0.06403 h -7.350582 c -0.4128115,0 -0.7451482,0.3323365 -0.7451482,0.7451475 0,0.412813 0.3323367,0.745149 0.7451482,0.745149 h 7.822122 c 0.611467,0.200096 1.026378,0.760726 1.02652,1.410738 0,0.831893 -0.658404,1.490297 -1.490297,1.490297 H 6.9004955 c -0.8312391,0 -1.4892638,-0.657389 -1.4902976,-1.488357 v -0.002 c 0.0018,-0.672549 0.4459286,-1.255345 1.0944373,-1.434023 A 0.74522331,0.74522331 0 0 0 6.9994606,10.224595 C 6.9315484,10.054369 6.8968493,9.8721875 6.8946741,9.6889895 c 0.00327,-0.80032 0.6167922,-1.444311 1.4165588,-1.482535 a 0.74522331,0.74522331 0 0 0 0.013584,-0.002 H 11.77307 c 0.412812,0 0.745149,-0.332337 0.745149,-0.745149 0,-0.412812 -0.332337,-0.745148 -0.745149,-0.745148 H 8.8992019 c 0.013352,-0.819759 0.6650194,-1.465072 1.4883571,-1.465072 h 1.241915 c 0.951419,0 1.73868,-0.787262 1.73868,-1.73868 z m 2.99806,4.001294 -0.02134,0.01747 c -0.0027,-4.28e-4 -0.0051,-0.0015 -0.0078,-0.002 a 0.74522331,0.74522331 0 0 0 0.02911,-0.01553 z" />
    </g>
  </g>
</svg>
