<?xml version="1.0" encoding="UTF-8" standalone="no"?>
<svg
   id="wrench"
   viewBox="0 0 17.5 17.5"
   version="1.1"
   sodipodi:docname="wrench-fill.svg"
   inkscape:version="1.2.2 (732a01da63, 2022-12-09)"
   width="17.5"
   height="17.5"
   xmlns:inkscape="http://www.inkscape.org/namespaces/inkscape"
   xmlns:sodipodi="http://sodipodi.sourceforge.net/DTD/sodipodi-0.dtd"
   xmlns="http://www.w3.org/2000/svg"
   xmlns:svg="http://www.w3.org/2000/svg">
  <defs
     id="defs4682" />
  <sodipodi:namedview
     id="namedview4680"
     pagecolor="#ffffff"
     bordercolor="#666666"
     borderopacity="1.0"
     inkscape:showpageshadow="2"
     inkscape:pageopacity="0.0"
     inkscape:pagecheckerboard="0"
     inkscape:deskcolor="#d1d1d1"
     showgrid="false"
     inkscape:zoom="17.4375"
     inkscape:cx="-3.2114695"
     inkscape:cy="11.240143"
     inkscape:window-width="1920"
     inkscape:window-height="1017"
     inkscape:window-x="-8"
     inkscape:window-y="-3"
     inkscape:window-maximized="1"
     inkscape:current-layer="wrench" />
  <path
     id="path4677"
     d="M 11.812655,1.1544643e-6 C 10.332344,9.3865446e-4 8.8832014,0.58375225 7.8107024,1.6562512 6.3907037,3.0762498 5.8497653,5.1654719 6.3497648,7.1054696 L 0.83999917,12.615236 c -1.11999889,1.119999 -1.11999889,2.930782 0,4.050781 0.54999943,0.54 1.26929763,0.839844 2.02929683,0.839844 0.7599993,0 1.4814849,-0.299844 2.0214844,-0.839844 l 5.5097656,-5.509765 c 1.939998,0.499999 4.02922,-0.04094 5.449218,-1.4609384 1.439999,-1.429998 1.990937,-3.5285175 1.460938,-5.4785155 -0.07,-0.2599997 -0.27125,-0.4612501 -0.53125,-0.53125 -0.25,-0.07 -0.52875,-5.467e-4 -0.71875,0.1894531 L 13.60953,6.3261731 11.699374,5.8066418 11.179843,3.8964856 13.631014,1.4453137 c 0.19,-0.1899998 0.259453,-0.45875025 0.189453,-0.71875005 -0.07,-0.2599997 -0.27125,-0.46125 -0.53125,-0.53125 C 12.801718,0.06281385 12.306092,-3.1134554e-4 11.812655,1.1544643e-6 Z" />
</svg>
